<?xml version="1.0" encoding="UTF-8" standalone="no"?>
<!-- Created with Inkscape (http://www.inkscape.org/) -->

<svg
   xmlns:dc="http://purl.org/dc/elements/1.1/"
   xmlns:cc="http://creativecommons.org/ns#"
   xmlns:rdf="http://www.w3.org/1999/02/22-rdf-syntax-ns#"
   xmlns:svg="http://www.w3.org/2000/svg"
   xmlns="http://www.w3.org/2000/svg"
   xmlns:sodipodi="http://sodipodi.sourceforge.net/DTD/sodipodi-0.dtd"
   xmlns:inkscape="http://www.inkscape.org/namespaces/inkscape"
   width="500mm"
   height="500mm"
   viewBox="0 0 500 500"
   version="1.1"
   id="svg10539"
   inkscape:version="0.92.1 r15371"
   sodipodi:docname="christmastree_simple.svg">
  <defs
     id="defs10533" />
  <sodipodi:namedview
     id="base"
     pagecolor="#cacaca"
     bordercolor="#666666"
     borderopacity="1.0"
     inkscape:pageopacity="0"
     inkscape:pageshadow="2"
     inkscape:zoom="0.25"
     inkscape:cx="531.34632"
     inkscape:cy="835.52838"
     inkscape:document-units="mm"
     inkscape:current-layer="layer1"
     showgrid="false"
     inkscape:window-width="1366"
     inkscape:window-height="715"
     inkscape:window-x="-8"
     inkscape:window-y="-8"
     inkscape:window-maximized="1" />
  <metadata
     id="metadata10536">
    <rdf:RDF>
      <cc:Work
         rdf:about="">
        <dc:format>image/svg+xml</dc:format>
        <dc:type
           rdf:resource="http://purl.org/dc/dcmitype/StillImage" />
        <dc:title></dc:title>
      </cc:Work>
    </rdf:RDF>
  </metadata>
  <g
     inkscape:label="Layer 1"
     inkscape:groupmode="layer"
     id="layer1"
     transform="translate(0,203)">
    <path
       sodipodi:nodetypes="cccccccccccccccccccccccccccccccccccccccccccccccszzsccccccccccccccccccccccccccccccccccccccccccccccc"
       inkscape:connector-curvature="0"
       id="path8282"
       d="m 247.45967,-193.60785 c -3.41525,5.2707 -8.31395,9.69908 -12.73701,13.4171 21.0261,-3.29249 -1.25751,11.5341 -5.40943,18.93523 3.92091,3.35953 18.88488,2.93112 6.91834,9.98139 -3.83456,8.6078 -30.2453,18.17474 -23.09372,26.55046 23.59628,-1.84995 1.91348,18.96665 -4.66741,28.959381 -0.6899,4.36946 23.78985,-3.61403 4.02068,3.33132 -11.33701,3.74663 -30.75638,19.4938 -5.68516,14.85695 8.43627,-5.15309 -3.54472,6.02919 8.3172,1.99018 -13.01421,7.91721 -34.3835,17.26887 -43.96424,24.18423 9.62586,6.68387 27.06845,8.80583 8.4099,17.42622 -21.41622,2.35208 -15.20643,14.147742 -10.15443,14.252861 -13.72596,3.913707 2.62594,11.8980448 9.87362,5.196225 -0.45158,4.9875488 12.37709,6.8320548 -1.43123,11.0669268 -21.26288,3.24228801 -2.52804,14.1354282 7.89346,18.7272092 6.57102,2.76109 -14.72942,-3.532837 -15.79447,6.311639 -13.6571,9.78248 -30.18515,15.027503 -46.70129,17.278349 0.42925,10.649993 26.86308,8.893342 18.09295,14.964742 8.43958,10.375564 25.49319,-11.247338 14.48084,8.38976 -4.75744,8.738687 -12.33547,12.032306 1.54158,16.220561 17.52044,9.052352 -12.55405,18.263791 -18.4814,23.825646 -4.37535,7.07915 -31.06298,3.56993 -27.88161,8.16914 16.70741,3.78707 14.49973,10.67524 11.39271,19.32625 5.94431,5.83487 25.16104,-5.2454 10.87141,5.78549 -6.90544,6.20792 -27.70688,10.48682 -9.6256,19.78493 9.5906,-0.13338 18.53924,-2.10039 4.09845,2.29101 -13.24783,0.92327 -23.05868,16.06296 -35.745002,16.14031 -22.24796,-2.59874 0.66984,10.57774 6.22413,12.20997 -14.65999,18.05056 15.652992,14.47525 23.442252,7.11635 -1.12021,2.01701 -9.28043,7.69516 -14.29048,8.92121 -7.22046,8.99231 -36.309142,7.46432 -35.148182,18.18314 5.80842,11.14905 21.61596,4.16478 25.25938,-1.26325 -5.29206,11.39186 -5.81173,17.41906 10.041752,10.5981 8.40453,-4.25614 12.06813,-23.36209 13.79152,-5.08601 -4.18434,7.99196 -22.332002,18.44906 -2.3838,16.27068 11.1692,-7.25631 6.40894,-7.6377 6.55978,3.86274 6.53002,7.91117 27.06169,-41.72272 17.6721,-17.31853 -11.96401,16.80782 18.16553,16.53785 18.9276,-2.32115 3.29591,-8.18442 19.71862,-34.5436 7.44481,-11.78366 -2.65681,5.80709 -9.58231,17.89342 -3.6222,21.61983 13.39147,-7.71111 12.75519,-1.12377 7.64032,8.64792 17.81794,12.07303 23.23185,-32.28429 26.76095,-25.80587 1.36444,7.48272 -10.18834,40.05258 1.9603,18.16567 6.0347,-24.26563 7.51678,5.58088 12.94687,12.24737 -0.55337,9.27583 3.79761,28.824 10.67331,9.96897 2.44293,-7.57798 0.0782,-23.02966 6.08358,-7.70041 1.95943,5.85904 3.58447,7.972 4.95066,7.8082 v 31.2154 c 0,1.31535 0.26698,2.06625 2.37373,2.37377 2.10675,0.30751 17.40902,0.51668 19.75497,0 2.34595,-0.51669 2.37377,-1.05842 2.37377,-2.37377 v -44.39785 c 2.86946,6.35411 6.7023,23.97953 11.56565,6.16136 5.1883,-7.01645 4.16373,-27.76429 13.92205,-25.96892 5.43455,4.47198 24.12669,26.99459 22.76284,16.69683 -7.31465,-24.98827 8.169,12.61382 16.14034,6.5073 -4.82844,-11.1857 -8.88697,-31.652 7.96868,-18.19579 5.95792,3.26497 12.4159,18.06032 13.54838,6.7253 0.82956,10.97993 14.80676,17.13103 24.98131,20.75012 17.98859,5.56855 -14.58914,-21.05367 5.44692,-12.59842 9.76194,0.40356 39.53771,16.19269 24.87098,-6.08114 1.62993,-6.47274 22.97833,-5.0649 25.16419,-18.36633 -8.44783,-2.84671 -20.66707,-2.67521 -29.49571,-7.3068 9.54777,4.01187 40.13267,-15.11391 21.45698,-18.45153 -6.8996,-5.42803 -12.52977,-7.60093 -2.59696,-6.55983 14.65812,-6.29511 10.92923,-18.66149 -4.88298,-15.99997 -9.29914,-1.68499 -21.24188,-7.81052 -28.11952,-7.49994 24.91104,-2.90128 -8.94776,-10.27548 -13.13984,-19.94284 14.1521,18.7205 44.23777,3.69687 44.25742,-17.30593 -5.71334,2.03265 -21.20621,12.01959 -29.71127,2.53679 -7.96614,-6.27268 14.65884,-14.78371 11.29233,-27.07688 -16.56629,7.40817 -40.76225,15.63222 -55.48463,-0.92497 7.01716,1.25195 25.45864,2.31528 19.7774,-1.51403 14.21179,6.17935 31.0552,-19.756735 8.01625,-13.764019 -13.91751,0.675604 -34.51079,-17.746401 -36.19099,-21.38921 23.98467,-0.02446 -20.42151,-11.653065 -2.2986,-14.089847 -5.57412,-8.188399 -17.65854,-22.994383 -3.35888,-8.369727 h 21.87804 c -6.62002,-9.206752 -21.06336,-15.081834 -3.81518,-14.034813 8.42006,-0.935598 23.25173,-4.244617 7.61023,-10.881349 -5.23159,-6.908468 -20.23607,-15.3674832 -25.18677,-16.7168422 18.57231,-0.225567 -17.82756,-11.7859038 2.37374,-9.332155 11.82104,-0.237675 21.84866,-11.8093678 4.34405,-9.9941488 -8.05619,-1.598108 -28.71963,-7.137432 -9.10167,-7.462222 7.98031,-2.244301 14.34294,-8.384846 1.26846,-6.615036 -7.03466,1.606449 -29.15871,-8.95893 -27.06689,-9.61299 15.30687,5.20897 11.23641,-3.46041 25.69318,-4.86295 -14.36104,-4.04852 -29.45242,-14.68384 -29.55083,-31.04493 8.97127,6.85957 39.14751,-11.83939 16.619,-10.62054 -15.61171,1.15659 -7.65561,-2.85633 -8.39477,-8.01382 -8.83029,0.22651 -41.36384,-19.734041 -23.05365,-20.554481 23.64472,3.38883 -10.17354,-9.54138 -8.14906,-13.84925 8.25367,0.86032 20.50669,-6.03895 5.15366,-8.20687 -6.17797,-4.36129 -26.66819,-25.91577 -15.3909,-28.37275 21.92868,4.09522 -17.50155,-20.16972 1.41382,-16.75445 -2.36157,-2.82041 -5.01927,-6.28241 -7.26807,-10.03851 -3.40092,-6.0917 -5.91291,-4.40979 -9.24499,0.47438 z"
       style="color:#000000;font-style:normal;font-variant:normal;font-weight:normal;font-stretch:normal;font-size:medium;line-height:normal;font-family:sans-serif;font-variant-ligatures:normal;font-variant-position:normal;font-variant-caps:normal;font-variant-numeric:normal;font-variant-alternates:normal;font-feature-settings:normal;text-indent:0;text-align:start;text-decoration:none;text-decoration-line:none;text-decoration-style:solid;text-decoration-color:#000000;letter-spacing:normal;word-spacing:normal;text-transform:none;writing-mode:lr-tb;direction:ltr;text-orientation:mixed;dominant-baseline:auto;baseline-shift:baseline;text-anchor:start;white-space:normal;shape-padding:0;clip-rule:nonzero;display:inline;overflow:visible;visibility:visible;opacity:1;isolation:auto;mix-blend-mode:normal;color-interpolation:sRGB;color-interpolation-filters:linearRGB;solid-color:#000000;solid-opacity:1;vector-effect:none;fill:#6baa73;fill-opacity:1;fill-rule:nonzero;stroke:none;stroke-width:0.41029388;stroke-linecap:butt;stroke-linejoin:miter;stroke-miterlimit:4;stroke-dasharray:none;stroke-dashoffset:0;stroke-opacity:1;color-rendering:auto;image-rendering:auto;shape-rendering:auto;text-rendering:auto;enable-background:accumulate" />
  </g>
</svg>
